# xmcd
#
# Track frame offsets:
#	150
#	12772
#	24887
#	36251
#	57245
#	70898
#	86854
#	98859
#	112544
#	123862
#	134251
#	148080
#	166261
#	183625
#	198123
#
# Disc length: 2862 seconds
#
# Revision: 0
# Processed by: cddbd v1.5.2PL0 Copyright (c) Steve Scherf et al.
# Submitted via: EZCDAudioConverter 2.2.2.1
#
DISCID=c10b2c0f
DTITLE=Simon Von Konoy - Mexican Joe
DYEAR=2016
DGENRE=country
TTITLE0=Mexican Joe
TTITLE1=Blue eyes crying in the rain
TTITLE2=Streets of Baltimore
TTITLE3=Goodheartet woman
TTITLE4=Blue side of lonesome
TTITLE5=Detroit city
TTITLE6=Oh lonesome me
TTITLE7=Are you lonesome tonight
TTITLE8=On the road again
TTITLE9=Abilene
TTITLE10=Green green grass of home
TTITLE11=He'll have to go
TTITLE12=Will the circle be unbroken
TTITLE13=Cryin' time
TTITLE14=We'll meet again
EXTD=
EXTT0=
EXTT1=
EXTT2=
EXTT3=
EXTT4=
EXTT5=
EXTT6=
EXTT7=
EXTT8=
EXTT9=
EXTT10=
EXTT11=
EXTT12=
EXTT13=
EXTT14=
PLAYORDER=
